<svg xmlns="http://www.w3.org/2000/svg" width="520" height="380" viewBox="250 330 520 380"><path fill="#fefefe" d="M342.958 565.195c15.231-2.079 24.855 4.571 33.723 16.009 9.275-11.228 18.467-15.468 33.042-16.032 17.404-.835 31.232 8.145 34.606 25.815 2.081 10.902 1.359 22.067 1.337 33.172l-.048 42.868-26.122-.011-.028-38.006c.045-11.268 2.539-31.572-8.797-38.827-10.645-6.812-27.99.453-29.384 13.565-1.57 14.762-.787 31.33-.715 46.502l.058 16.741-26.004.08c-.394-14.244.247-28.788.009-43.075-.245-14.635 3.021-35.061-17.803-35.964-10.085-.437-18.391 5.305-20.708 15.26-1.118 7.163-.61 16.867-.581 24.414l-.003 39.305-25.824.106c-.34-10.956-.033-23.751-.02-34.867l.052-65.883c8.507-.174 17.734.065 26.295.123l-.059 12.164c8.279-8.589 15.027-12.049 26.974-13.459"/><path fill="#fefefe" d="M504.285 565.18c14.711-2.647 32.78 4.058 42.625 15.118 11.406 12.813 12.454 27.567 11.787 43.755l-75.961.116c2.734 17.156 16.304 24.525 32.726 22.466 9.108-1.142 13.472-5.619 18.705-12.57 2.719.732 5.4 1.901 8.027 2.951l12.74 5.159C530.78 685.51 464.139 673.262 458 624.512c-3.939-31.28 14.654-55.349 46.285-59.332"/><path fill="#0c0c0c" d="M503.808 585.595c11.356-1.066 23.588 1.325 28.809 12.893 1.006 2.231 2.321 5.267 1.487 7.593-2.203.521-14.857.179-18.229.16-4.133.037-30.638.776-32.343-.517-.472-2.4 1.314-7.418 2.721-9.339 5.176-7.07 9.356-9.145 17.555-10.79"/><path fill="#bef82b" d="M508.807 356.242c9.551-.178 22.716-1.285 23.606 12.61.504 7.861.157 16.342.23 24.277q.283 25.577.301 51.156.015 17.17-.222 34.337c-.146 15.519 3.533 29.756-16.398 30.562-12.602.171-23.216 1.473-23.828-14.818-.343-9.154-.325-18.281-.361-27.442l-.024-49.852.153-33.037c.103-14.814-2.786-27.249 16.543-27.793"/><path fill="#fefefe" d="m575.276 542.055 25.826-.007-.043 24.279a723 723 0 0 1 22.572.047l-.072 20.887c-7.09.246-15.075.101-22.235.132-.246 15.635.002 31.419.228 47.051.186 12.841 12.255 11.219 21.446 10.002l.067 12.331-.003 10.214c-12.356 2.126-30.222 2.239-39.569-7.623-10.146-10.704-8.496-27.229-8.482-40.932l.062-30.906-11.677-.004.03-21.417 11.721-.082c.168-7.875.085-16.062.129-23.972"/><path fill="#bef82b" d="M553.526 377.152c13.331-.408 25.535-1.966 25.437 15.588-.161 28.516.308 57.081-.154 85.587-.126 7.812-4.002 11.092-11.387 12.766-28.534 3.032-26.249-5.46-26.325-29.004l-.031-29.167.062-27.922c.049-12.308-2.966-25.451 12.398-27.848"/><path fill="#bef82b" d="M457.78 377.196c7.531-.264 18.699-1.008 23.806 5.58.891 1.15 1.688 6.653 1.697 8.415.144 29.097.3 58.236-.064 87.329-.092 7.34-3.568 10.834-10.593 12.502-4.044.229-7.952.527-12.004.391-16.806-.562-14.697-11.277-14.689-23.425l.038-27.08-.037-33.995c-.004-3.799.047-7.821-.004-11.602-.133-9.982.344-16.472 11.85-18.115"/><path fill="#fefefe" d="M689.762 565.617c1.416-.2 3.069-.534 4.106.472.672 6.051.255 19.496.225 26.105a253 253 0 0 0-5.299-.11c-27.525-.201-25.419 18.984-25.384 39.087l.055 35.907-26.151.015-.054-10.468-.081-90.344a1430 1430 0 0 1 25.873.086l.107 16.708c7.824-11.103 12.998-14.877 26.603-17.458"/><path fill="#fefefe" d="M705.581 566.432c8.309-.246 17.522-.016 25.898.025l.067 100.578-25.976.025c-.532-32.926-.043-67.623.011-100.628"/><path fill="#bef82b" d="m433.367 401.227 6.363.171-.208 65.049c-3.475.081-7.075.007-10.56-.021-2.299-.626-6.319-3.016-6.453-5.504-.904-16.769-.482-34.121-.361-50.915.057-7.841 4.684-8.3 11.219-8.78"/><path fill="#bef82b" d="M585.526 401.42c7.984-.203 11.976-1.644 16.964 5.452.131 2.993.157 6.107.099 9.134-.284 14.83.646 29.881-.421 44.648-.082 1.141-1.453 2.795-2.188 3.698-4.371 2.821-9.614 2.084-14.734 1.912z"/><path fill="#fefefe" d="M717.047 525.862c8.597-.829 16.252 5.435 17.14 14.026s-5.323 16.289-13.907 17.237c-8.67.957-16.46-5.329-17.357-14.004s5.443-16.423 14.124-17.259"/><path fill="#bef82b" d="M410.397 425.075c2.651-.172 5.923-.128 8.635-.156l.056 16.694c-1.897-.014-4.193.251-6.111.417-3.73-.536-6.282-1.568-7.92-5.262a8.47 8.47 0 0 1-.123-6.517c1.158-2.902 2.782-3.923 5.463-5.176"/><path fill="#bef82b" d="M605.893 425.019c4.123-.166 7.07-.683 10.77 1.629 5.036 3.147 4.176 8.615 1.224 13.032-3.574 2.987-7.423 2.259-11.97 2.054a597 597 0 0 1-.024-16.715"/></svg>
